<?xml version="1.0" encoding="utf-8"?>
<!-- Generator: Adobe Illustrator 16.0.0, SVG Export Plug-In . SVG Version: 6.00 Build 0)  -->
<!DOCTYPE svg PUBLIC "-//W3C//DTD SVG 1.1//EN" "http://www.w3.org/Graphics/SVG/1.1/DTD/svg11.dtd">
<svg version="1.1" id="Layer_1" xmlns="http://www.w3.org/2000/svg" xmlns:xlink="http://www.w3.org/1999/xlink" x="0px" y="0px"
	 width="1471.13px" height="356.35px" viewBox="0 0 1471.13 356.35" enable-background="new 0 0 1471.13 356.35"
	 xml:space="preserve">
<path fill="#045EA8" d="M320.861,208.907h-52.318L312.995,0.366H184.028L18.476,207.993L0,294.52h151.284l-13.72,61.83h97.685
	l16.098-62.196h70.612L320.861,208.907z M166.284,209.456h-56.526l82.868-103.905L166.284,209.456z"/>
<polygon fill="#045EA8" points="339.154,294.336 420.192,294.336 485.864,138.113 481.291,294.336 562.146,294.336 698.43,0 
	607.696,0 543.305,167.199 543.67,0 483.303,0 411.045,166.284 419.46,0 333.3,0 "/>
<polygon fill="#045EA8" points="954.045,0 889.654,167.199 890.019,0 829.652,0 757.395,166.284 765.809,0 714.758,0 681.08,71.945 
	685.503,294.336 766.542,294.336 832.213,138.113 827.64,294.336 908.496,294.336 1044.779,0 "/>
<polygon fill="#045EA8" points="1058.073,0 992.766,294.336 1164.172,294.336 1180.27,223.542 1091.915,223.542 1137.83,0 "/>
<g>
	<path fill="#045EA8" d="M1326.249,3.75c-80.016,0-144.881,64.866-144.881,144.882c0,80.016,64.865,144.881,144.881,144.881
		c80.017,0,144.882-64.865,144.882-144.881C1471.13,68.616,1406.265,3.75,1326.249,3.75z M1326.066,235.249
		c-96.404,0-136.283-86.617-136.283-86.617s40.244-86.435,136.466-86.435s136.102,86.435,136.102,86.435
		S1422.47,235.249,1326.066,235.249z"/>
	<circle fill="#045EA8" cx="1325.702" cy="148.084" r="76.277"/>
</g>
</svg>
